:SAMPLES-PER-SECOND 30
:FULLY-SPECIFIED
:DEGREES
910
root  10.0589 39.2784 15.3213 171.442 60.4874 170.555
RightUpLeg  -13.5166 -40.073 -11.0409
RightLeg  32.1284 -12.1945 -8.37693
RightFoot  -9.49142 -0.0979258 2.07303
RightToes  0.000481921 0.542163 -0.142578
Spine  27.1079 2.82362 13.1435
Spine1  2.45413 8.1162 -10.1568
HEad  0.827132 -27.224 3.76156
LeftShoulder1  6.72545 -13.249 -34.0989
LeftArm  7.34739 -12.4383 -46.3473
LeftForeArm  -167.218 -56.6767 -166.633
LeftHand  -0.25398 0.0180481 5.50724
RightShoulder  2.01109 4.81824 17.4299
RightArm  -45.6749 29.9 15.012
RightForeArm  115.837 79.6592 108.271
RightHand  -0.499358 1.78169 -7.86655
LeftUpLeg  -17.0952 8.16773 2.13568
LeftLeg  11.9585 -8.67984 -2.87972
LeftFoot  5.74 1.26657 -8.65659
LeftToes  1.06245e-005 4.65869e-005 -8.65517e-006
911
root  10.3914 39.4347 15.3085 172.232 59.6128 171.972
RightUpLeg  -11.0143 -40.2746 -11.1765
RightLeg  30.4245 -12.9456 -8.32304
RightFoot  -9.2536 -0.10715 2.43158
RightToes  0.000481921 0.542163 -0.142578
Spine  25.5031 2.74156 10.0647
Spine1  4.19128 6.31508 -5.48282
HEad  0.582377 -24.5166 2.80158
LeftShoulder1  6.62168 -12.8799 -34.3607
LeftArm  7.00704 -11.9388 -46.6302
LeftForeArm  -167.566 -55.8799 -167.002
LeftHand  -0.25398 0.0180481 5.50724
RightShoulder  3.56448 7.71067 25.671
RightArm  -33.9 22.7281 21.418
RightForeArm  -174.327 63.0522 163.576
RightHand  0.0239925 0.743541 0.201402
LeftUpLeg  -15.5769 6.11711 3.12849
LeftLeg  10.5956 -7.70037 -2.50197
LeftFoot  6.05867 1.24837 -8.38885
LeftToes  1.06245e-005 4.65869e-005 -8.65517e-006
912
root  10.6472 39.5531 15.2252 171.571 61.1256 171.744
RightUpLeg  -9.79352 -37.8578 -11.1378
RightLeg  29.2002 -13.7553 -8.41542
RightFoot  -8.97939 -0.115734 2.65827
RightToes  0.000481921 0.542163 -0.142578
Spine  24.5369 2.80301 8.30808
Spine1  4.99168 5.689 -4.13115
HEad  1.16077 -21.7695 1.30329
LeftShoulder1  6.23384 -12.1376 -33.8079
LeftArm  7.14419 -13.8361 -46.89
LeftForeArm  -166.109 -55.3235 -167.375
LeftHand  -0.25398 0.0180481 5.50724
RightShoulder  5.25485 10.3742 31.9684
RightArm  -24.629 16.6253 26.5036
RightForeArm  -153.853 52.8066 169.521
RightHand  0.282697 1.28425 4.74257
LeftUpLeg  -13.9931 5.80435 3.76526
LeftLeg  9.8434 -6.07537 -2.18759
LeftFoot  5.8638 1.21192 -8.23797
LeftToes  1.06245e-005 4.65869e-005 -8.65517e-006
913
root  10.8091 39.634 15.0377 170.495 63.4831 171.28
RightUpLeg  -8.71252 -35.9144 -11.3778
RightLeg  28.0767 -13.388 -7.85738
RightFoot  -8.67865 -0.118662 2.57254
RightToes  0.000481921 0.542163 -0.142578
Spine  23.9562 2.81483 7.72673
Spine1  4.9436 5.62088 -4.35428
HEad  2.57331 -19.5485 0.482565
LeftShoulder1  5.96798 -11.6696 -33.2913
LeftArm  7.11254 -16.9124 -47.2937
LeftForeArm  -164.028 -55.209 -167.578
LeftHand  -0.25398 0.0180481 5.50724
RightShoulder  6.28185 11.6384 35.5514
RightArm  -19.4252 13.9397 30.296
RightForeArm  -151.869 48.9926 170.87
RightHand  0.287258 1.66407 4.55068
LeftUpLeg  -12.4989 6.55457 4.27797
LeftLeg  9.93785 -4.75656 -2.03201
LeftFoot  5.18431 1.15448 -8.15735
LeftToes  1.06245e-005 4.65869e-005 -8.65517e-006
914
root  10.8989 39.7165 14.7571 169.755 65.8164 171.41
RightUpLeg  -7.14408 -35.4677 -11.8982
RightLeg  26.5231 -11.7896 -6.55823
RightFoot  -8.16561 -0.119662 2.31977
RightToes  0.000481921 0.542163 -0.142578
Spine  23.1104 2.54839 7.62482
Spine1  4.83056 5.31111 -4.49146
HEad  5.05762 -17.2526 0.0274242
LeftShoulder1  5.9783 -11.8283 -32.9528
LeftArm  6.18814 -19.7972 -48.0617
LeftForeArm  -164.274 -55.6199 -167.366
LeftHand  -0.25398 0.0180481 5.50724
RightShoulder  6.28283 11.71 35.3204
RightArm  -17.3779 16.0254 34.4732
RightForeArm  -161.177 50.7201 169.62
RightHand  0.146545 0.930253 2.5931
LeftUpLeg  -11.0181 7.48625 4.81284
LeftLeg  10.364 -3.70726 -1.83086
LeftFoot  4.41575 1.05908 -7.83884
LeftToes  1.06245e-005 4.65869e-005 -8.65517e-006
915
root  10.967 39.8371 14.4366 169.102 68.5693 171.538
RightUpLeg  -5.55072 -35.1031 -12.3052
RightLeg  24.4013 -9.80478 -5.06764
RightFoot  -7.31016 -0.125717 2.15944
RightToes  0.000481921 0.542163 -0.142578
Spine  21.8706 2.20357 7.7084
Spine1  4.75277 4.94504 -4.7384
HEad  8.55257 -14.5213 -0.425003
LeftShoulder1  6.13585 -12.3361 -32.6977
LeftArm  4.88231 -21.9529 -49.0212
LeftForeArm  -166.22 -56.3629 -166.864
LeftHand  -0.25398 0.0180481 5.50724
RightShoulder  5.78393 11.5 32.6015
RightArm  -17.2284 21.0396 39.1676
RightForeArm  -168.994 56.1365 166.728
RightHand  0.0440307 0.411712 0.854048
LeftUpLeg  -9.2698 8.32169 5.45745
LeftLeg  10.2266 -2.06826 -1.6563
LeftFoot  3.90651 0.959428 -7.33992
LeftToes  1.06245e-005 4.65869e-005 -8.65517e-006
916
root  11.0584 39.9899 14.1192 167.915 71.9219 170.825
RightUpLeg  -4.3924 -33.3763 -12.3925
RightLeg  21.9907 -8.49801 -3.87261
RightFoot  -6.22447 -0.143491 2.25881
RightToes  0.000481921 0.542163 -0.142578
Spine  20.5992 2.0794 7.88141
Spine1  4.41016 4.89995 -5.4517
HEad  12.0637 -11.8057 -0.482133
LeftShoulder1  6.25308 -12.72 -32.5036
LeftArm  4.22173 -23.4588 -50.2495
LeftForeArm  -166.844 -57.0783 -166.458
LeftHand  -0.25398 0.0180481 5.50724
RightShoulder  5.31798 11.3703 29.7819
RightArm  -17.0376 26.2621 43.0267
RightForeArm  -172.157 61.366 163.546
RightHand  -0.034173 0.480674 -0.712822
LeftUpLeg  -7.16602 9.02468 6.21585
LeftLeg  9.22747 0.425213 -1.79087
LeftFoot  3.68279 0.896826 -6.96645
LeftToes  1.06245e-005 4.65869e-005 -8.65517e-006
917
root  11.1757 40.1298 13.8153 166.206 75.1289 169.385
RightUpLeg  -3.54875 -29.7596 -12.3889
RightLeg  19.8396 -9.01659 -3.03646
RightFoot  -5.17241 -0.175127 2.59462
RightToes  0.000481921 0.542163 -0.142578
Spine  19.458 2.03555 7.87618
Spine1  3.97362 4.84917 -5.96719
HEad  14.4247 -9.45882 -0.0314681
LeftShoulder1  6.27894 -12.8644 -32.3215
LeftArm  4.23036 -24.3502 -51.7873
LeftForeArm  -166.006 -57.4597 -166.324
LeftHand  -0.25398 0.0180481 5.50724
RightShoulder  5.00167 11.2678 27.8426
RightArm  -15.4756 30.4284 45.8973
RightForeArm  -174.762 64.0684 161.326
RightHand  -0.147577 0.942004 -2.80706
LeftUpLeg  -5.15391 9.37781 6.89499
LeftLeg  8.05535 3.18193 -2.17463
LeftFoot  3.53261 0.856573 -6.72238
LeftToes  1.06245e-005 4.65869e-005 -8.65517e-006
918
root  11.2865 40.212 13.5291 164.331 77.5962 167.731
RightUpLeg  -3.00194 -26.0966 -12.4143
RightLeg  18.4253 -10.1554 -2.5586
RightFoot  -4.41273 -0.209974 2.97201
RightToes  0.000481921 0.542163 -0.142578
Spine  18.429 1.76828 7.49507
Spine1  3.75084 4.35006 -5.69504
HEad  15.5383 -7.28041 0.369544
LeftShoulder1  6.30076 -12.997 -32.1452
LeftArm  4.22859 -24.6199 -53.2473
LeftForeArm  -165.829 -57.4379 -166.348
LeftHand  -0.25398 0.0180481 5.50724
RightShoulder  4.76963 11.2187 26.3284
RightArm  -12.7621 33.5623 49.0486
RightForeArm  -178.829 65.292 159.868
RightHand  -0.293079 1.59294 -5.04744
LeftUpLeg  -3.83679 9.74489 7.22408
LeftLeg  7.71515 5.19762 -2.35746
LeftFoot  3.13083 0.79796 -6.42955
LeftToes  1.06245e-005 4.65869e-005 -8.65517e-006
919
root  11.3593 40.2092 13.2684 161.882 79.5217 165.556
RightUpLeg  -2.97671 -24.3544 -12.4963
RightLeg  18.1599 -9.82934 -2.48531
RightFoot  -4.16926 -0.235971 3.31087
RightToes  0.000481921 0.542163 -0.142578
Spine  17.73 1.34262 6.85636
Spine1  3.64226 3.58143 -4.9337
HEad  16.1038 -5.22703 0.441919
LeftShoulder1  6.37032 -13.286 -31.9014
LeftArm  4.1387 -24.4427 -54.593
LeftForeArm  -166.169 -57.2556 -166.417
LeftHand  -0.25398 0.0180481 5.50724
RightShoulder  4.58388 11.2289 24.9896
RightArm  -9.90281 35.5642 52.7602
RightForeArm  177.388 66.1027 158.727
RightHand  -0.440135 2.43422 -6.77838
LeftUpLeg  -3.36346 10.9367 7.1712
LeftLeg  8.76672 5.82691 -2.03891
LeftFoot  2.11556 0.721161 -6.2194
LeftToes  1.06245e-005 4.65869e-005 -8.65517e-006
